<svg width="30" height="30" viewBox="0 0 30 30" fill="none" xmlns="http://www.w3.org/2000/svg">
<path d="M10.3496 4.61577L9.41284 4.58295L9.48831 2.42834H20.5117L20.5867 4.58295L19.6496 4.61553L19.606 3.36584H10.3935L10.3496 4.61577Z" fill="white"/>
<path d="M3.20063 13.29H1.58203C0.709688 13.29 0 12.5615 0 11.6657C0 10.7707 0.709688 10.042 1.58203 10.042H4.41656V10.9795H1.58203C1.22672 10.9797 0.9375 11.2875 0.9375 11.6657C0.9375 12.0443 1.22672 12.3525 1.58203 12.3525H3.20063V13.29Z" fill="white"/>
<path d="M28.4175 13.2897H26.4945V12.3522H28.4175C28.7733 12.3522 29.0625 12.0442 29.0625 11.6655C29.0625 11.2872 28.7733 10.9792 28.4175 10.9792H25.5825V10.0417H28.4175C29.2901 10.0417 30 10.7702 30 11.6655C30 12.5613 29.2901 13.2897 28.4175 13.2897Z" fill="white"/>
<path d="M25.9384 13.0165L23.7256 6.94268C23.7059 6.88901 23.6037 6.81776 23.5466 6.81776H6.45359C6.39945 6.81776 6.30031 6.88807 6.2825 6.93917L4.20922 12.8719L3.32422 12.5628L5.3975 6.63002C5.5468 6.20276 6.00078 5.88049 6.45359 5.88049H23.5466C23.9966 5.88049 24.452 6.19901 24.6062 6.62182L26.8189 12.6959L25.9384 13.0165Z" fill="white"/>
<path d="M4.94963 27.5716H3.68846C2.23768 27.5716 1.05713 26.3794 1.05713 24.9138V23.3438H1.99463V24.9138C1.99463 25.8623 2.75447 26.6341 3.68846 26.6341H4.94963C5.88338 26.6341 6.64322 25.8623 6.64322 24.9138V23.3438H7.58072V24.9138C7.58072 26.3794 6.40041 27.5716 4.94963 27.5716Z" fill="white"/>
<path d="M26.3114 27.5716H25.05C23.5992 27.5716 22.4185 26.3793 22.4185 24.9138V23.0261H23.356V24.9138C23.356 25.8623 24.1158 26.6341 25.05 26.6341H26.3114C27.2449 26.6341 28.0048 25.8623 28.0048 24.9138V23.0261H28.9423V24.9138C28.9421 26.3793 27.762 27.5716 26.3114 27.5716Z" fill="white"/>
<path d="M28.5777 23.5049H1.4221C0.685224 23.5049 0.0856934 22.9007 0.0856934 22.1577V16.2869C0.0856934 15.6667 0.432334 14.8888 0.891943 14.4775L3.19491 12.4183C3.64186 12.0184 4.4289 11.717 5.02538 11.717H24.973C25.5698 11.717 26.3568 12.0184 26.804 12.4183L29.1074 14.477C29.5675 14.8893 29.9141 15.667 29.9141 16.2866V22.1577C29.9144 22.9007 29.3146 23.5049 28.5777 23.5049ZM5.02562 12.6545C4.66538 12.6545 4.09069 12.8749 3.81999 13.1172L1.51702 15.1764C1.25851 15.4075 1.02319 15.937 1.02319 16.2869V22.1577C1.02319 22.3837 1.20202 22.5674 1.4221 22.5674H28.5777C28.7978 22.5674 28.9769 22.3837 28.9769 22.1577V16.2866C28.9769 15.9372 28.7411 15.4075 28.4826 15.1757L26.1794 13.1172C25.9087 12.8751 25.334 12.6545 24.9733 12.6545H5.02562Z" fill="white"/>
<path d="M28.5777 23.5049H1.4221C0.685224 23.5049 0.0856934 22.9007 0.0856934 22.1577V16.2869C0.0856934 15.6667 0.432334 14.8888 0.891943 14.4775L3.19491 12.4183C3.64186 12.0184 4.4289 11.717 5.02538 11.717H24.973C25.5698 11.717 26.3568 12.0184 26.804 12.4183L29.1074 14.477C29.5675 14.8893 29.9141 15.667 29.9141 16.2866V22.1577C29.9144 22.9007 29.3146 23.5049 28.5777 23.5049ZM5.02562 12.6545C4.66538 12.6545 4.09069 12.8749 3.81999 13.1172L1.51702 15.1764C1.25851 15.4075 1.02319 15.937 1.02319 16.2869V22.1577C1.02319 22.3837 1.20202 22.5674 1.4221 22.5674H28.5777C28.7978 22.5674 28.9769 22.3837 28.9769 22.1577V16.2866C28.9769 15.9372 28.7411 15.4075 28.4826 15.1757L26.1794 13.1172C25.9087 12.8751 25.334 12.6545 24.9733 12.6545H5.02562Z" fill="white"/>
<path d="M23.9327 23.5047H6.5083V21.3234C6.5083 20.3386 7.30236 19.5372 8.2783 19.5372H22.1617C23.1384 19.5372 23.9329 20.3386 23.9329 21.3234L23.9327 23.5047ZM7.4458 22.5672H22.9952V21.3234C22.9952 20.8554 22.6211 20.4747 22.1615 20.4747H8.2783C7.81939 20.4747 7.4458 20.8554 7.4458 21.3234V22.5672Z" fill="white"/>
<path d="M4.95217 19.9762H2.63818V20.9137H4.95217V19.9762Z" fill="white"/>
<path d="M27.354 19.9762H25.344V20.9137H27.354V19.9762Z" fill="white"/>
<path d="M19.2841 16.6689H10.7156V17.6064H19.2841V16.6689Z" fill="white"/>
<path d="M7.04082 18.5718H2.60246V17.6343H7.04059C7.32816 17.6341 7.43387 17.5513 7.44465 17.5312C7.45027 17.5204 7.4552 17.4325 7.34387 17.2706C6.96184 16.7153 6.41879 16.3755 6.25051 16.3755H0.77832V15.438H6.25051C6.88754 15.438 7.67129 16.0926 8.11613 16.7395C8.40559 17.1606 8.46324 17.6081 8.27457 17.9676C8.07277 18.3513 7.62301 18.5716 7.04082 18.5718Z" fill="white"/>
<path d="M27.3972 18.5718H22.9591C22.3772 18.5718 21.9274 18.3517 21.7254 17.9678C21.5362 17.6083 21.5936 17.1606 21.8833 16.7395C22.3282 16.0926 23.1117 15.4377 23.749 15.4377H28.9176V16.3752H23.749C23.5807 16.3752 23.0379 16.7151 22.6558 17.2703C22.5532 17.4201 22.5459 17.5138 22.555 17.5312C22.5658 17.5516 22.6715 17.6341 22.9591 17.6341H27.3972V18.5718Z" fill="white"/>
</svg>
