<svg width="30" height="30" viewBox="0 0 30 30" fill="none" xmlns="http://www.w3.org/2000/svg">
<g clip-path="url(#clip0_2010_79)">
<path d="M24.5365 21.002C22.8422 21.002 21.4639 19.6386 21.4639 17.9626C21.4639 16.2866 22.8422 14.923 24.5365 14.923C26.2308 14.923 27.6094 16.2863 27.6094 17.9626C27.6096 19.6386 26.2311 21.002 24.5365 21.002ZM24.5365 15.8635C23.3607 15.8635 22.4042 16.8055 22.4042 17.9628C22.4042 19.1202 23.3607 20.0619 24.5365 20.0619C25.7126 20.0619 26.6693 19.1199 26.6693 17.9628C26.6693 16.8052 25.7126 15.8635 24.5365 15.8635Z" fill="currentColor"/>
<path d="M7.38056 15.4097C5.12916 10.1311 7.29455 3.5011 10.5805 1.97742C10.7319 1.90711 10.9095 1.92235 11.0467 2.01797C11.1835 2.11313 11.2599 2.27414 11.247 2.44078C10.9639 6.05649 11.3912 10.0613 12.4824 14.0215L11.5759 14.2713C10.5479 10.5405 10.0946 6.76641 10.2526 3.29203C7.97306 5.15227 6.29634 10.47 8.24564 15.0408L7.38056 15.4097Z" fill="currentColor"/>
<path d="M15.781 12.9841C14.8264 9.16758 13.2866 5.64187 11.2042 2.505C11.1095 2.3625 11.0999 2.17969 11.1789 2.02805C11.2578 1.87641 11.4132 1.77914 11.5841 1.77492C15.1096 1.68867 20.3633 7.22695 20.9654 11.655L20.0335 11.7818C19.5446 8.18531 15.5659 3.61172 12.5303 2.83031C14.3985 5.83992 15.7975 9.17414 16.6935 12.7561L15.781 12.9841Z" fill="currentColor"/>
<path d="M16.7382 22.0821L14.7454 14.5219L13.8359 14.7616L15.8287 22.3219L16.7382 22.0821Z" fill="currentColor"/>
<path d="M6.3731 30L5.58911 29.4806L8.07278 25.7316L5.61653 20.4094L6.47036 20.0154L9.03653 25.5757C9.10497 25.7236 9.09161 25.8966 9.00161 26.0323L6.3731 30Z" fill="currentColor"/>
<path d="M22.6684 29.8598L21.8064 26.5856H8.51782V25.645H22.169C22.3823 25.645 22.5693 25.7889 22.6237 25.9956L23.5778 29.6205L22.6684 29.8598Z" fill="currentColor"/>
<path d="M11.3943 1.79148L10.9229 0.000610352L10.0135 0.240014L10.4849 2.03089L11.3943 1.79148Z" fill="currentColor"/>
<path d="M22.7559 26.1282H21.8156V24.44H10.3204C10.1313 24.44 9.96063 24.327 9.88728 24.1529C9.88212 24.1405 9.87603 24.1233 9.87064 24.1067L7.31665 18.5743L8.17048 18.1803L10.626 23.4997H22.2857C22.5452 23.4997 22.7559 23.7101 22.7559 23.9698V26.1282Z" fill="currentColor"/>
<path d="M5.52585 17.5248C4.49741 17.5248 3.56202 16.9653 3.08436 16.0648L3.08788 16.0627L3.08179 16.051L3.03538 15.9645L3.03585 15.9643L3.0314 15.9563L3.03186 15.9549C2.77452 15.2108 2.59804 14.4566 2.5078 13.7131C1.66804 8.19711 5.42296 2.55617 10.8794 1.15297L10.8797 1.15391L10.9645 1.13516L10.9641 1.13328C11.7961 0.926797 12.6602 0.822266 13.5326 0.822266C18.2941 0.822266 22.7775 3.87711 24.435 8.25078C24.674 8.82828 24.8712 9.47211 25.0172 10.1539L25.0251 10.1696L25.0657 10.3672L25.0643 10.4637C25.0828 11.7113 24.2362 12.8124 23.0058 13.1284C22.2133 13.3302 21.3605 13.1619 20.7103 12.6997C20.3473 13.4277 19.6791 13.982 18.8651 14.1905C18.0464 14.4017 17.1462 14.2271 16.4658 13.738C16.1128 14.495 15.4324 15.0711 14.5844 15.2891C13.7613 15.4993 12.8855 15.3331 12.214 14.8613C11.854 15.5998 11.179 16.1628 10.3505 16.3754C9.53671 16.5837 8.67374 16.4213 8.00624 15.9624C7.66476 16.6834 7.01483 17.2316 6.20788 17.4385C5.98569 17.4959 5.75601 17.5248 5.52585 17.5248ZM3.91218 15.6233L3.91475 15.6242C4.22413 16.2076 4.85671 16.5847 5.52585 16.5847C5.67726 16.5847 5.82819 16.5657 5.97468 16.528C6.68272 16.3466 7.20679 15.767 7.30968 15.0514L8.13772 14.8194C8.6121 15.3943 9.38647 15.6516 10.1175 15.4648C10.8532 15.2759 11.4084 14.6783 11.5315 13.9419L12.3605 13.723C12.8348 14.3082 13.6162 14.5667 14.3512 14.3785C15.108 14.1842 15.6658 13.5664 15.772 12.8052L16.6106 12.5837C16.9751 13.0587 17.5479 13.3421 18.1427 13.3421C18.3073 13.3421 18.4713 13.3212 18.6309 13.28C19.3556 13.0941 19.9076 12.5021 20.0379 11.7711L20.873 11.5665C21.3089 12.1311 22.0737 12.3957 22.773 12.2176C23.5678 12.0137 24.1362 11.2761 24.1244 10.4642L24.1247 10.4513L24.1115 10.4145C23.9761 9.76461 23.7912 9.15289 23.5612 8.59719C22.0338 4.56758 17.9121 1.76258 13.5328 1.76258C12.7366 1.76258 11.9489 1.85797 11.1912 2.04594L11.1337 2.05906L11.1335 2.05836L11.1232 2.06141C6.11132 3.35047 2.66835 8.51937 3.43921 13.5863C3.52241 14.2695 3.68108 14.9502 3.91218 15.6233Z" fill="currentColor"/>
</g>
<defs>
<clipPath id="clip0_2010_79">
<rect width="30" height="30" fill="white"/>
</clipPath>
</defs>
</svg>
