<svg width="30" height="30" viewBox="0 0 30 30" fill="none" xmlns="http://www.w3.org/2000/svg">
<path d="M10.0781 1.40625C13.3266 1.40625 16.575 1.40625 19.9219 1.40625C19.9219 2.025 19.9219 2.64375 19.9219 3.28125C20.2477 3.27717 20.2477 3.27717 20.5801 3.27301C20.8608 3.2709 21.1415 3.26878 21.4307 3.2666C21.7107 3.26388 21.9908 3.26116 22.2794 3.25836C22.9688 3.28125 22.9688 3.28125 23.2031 3.51562C23.2234 3.86454 23.2282 4.2144 23.226 4.5639C23.2254 4.75366 23.2248 4.94341 23.2242 5.13891C23.2221 5.3815 23.22 5.62409 23.2178 5.87402C23.2129 6.64263 23.2081 7.41123 23.2031 8.20312C25.2141 8.20312 27.225 8.20312 29.2969 8.20312C29.2969 14.932 29.2969 21.6609 29.2969 28.5938C19.8609 28.5938 10.425 28.5938 0.703125 28.5938C0.703125 21.8648 0.703125 15.1359 0.703125 8.20312C2.71406 8.20312 4.725 8.20312 6.79688 8.20312C6.7876 6.67101 6.7876 6.67101 6.77576 5.13891C6.77518 4.94916 6.77459 4.75941 6.77399 4.5639C6.77215 4.27117 6.77215 4.27117 6.77027 3.97253C6.79688 3.51562 6.79688 3.51562 7.03125 3.28125C7.54369 3.26424 8.05664 3.26162 8.56934 3.2666C8.99035 3.26977 8.99035 3.26977 9.41986 3.27301C9.63709 3.27573 9.85432 3.27845 10.0781 3.28125C10.0781 2.6625 10.0781 2.04375 10.0781 1.40625ZM11.0156 2.34375C11.0156 2.65313 11.0156 2.9625 11.0156 3.28125C13.6453 3.28125 16.275 3.28125 18.9844 3.28125C18.9844 2.97187 18.9844 2.6625 18.9844 2.34375C16.3547 2.34375 13.725 2.34375 11.0156 2.34375ZM7.73438 4.45312C7.73438 12.1102 7.73438 19.7672 7.73438 27.6562C9.12656 27.6562 10.5188 27.6562 11.9531 27.6562C12.0305 25.568 12.1078 23.4797 12.1875 21.3281C14.0438 21.3281 15.9 21.3281 17.8125 21.3281C17.8898 23.4164 17.9672 25.5047 18.0469 27.6562C19.4391 27.6562 20.8313 27.6562 22.2656 27.6562C22.2656 19.9992 22.2656 12.3422 22.2656 4.45312C17.4703 4.45312 12.675 4.45312 7.73438 4.45312ZM1.64062 9.14062C1.64062 15.2508 1.64062 21.3609 1.64062 27.6562C3.34219 27.6562 5.04375 27.6562 6.79688 27.6562C6.79688 21.5461 6.79688 15.4359 6.79688 9.14062C5.09531 9.14062 3.39375 9.14062 1.64062 9.14062ZM23.2031 9.14062C23.2031 15.2508 23.2031 21.3609 23.2031 27.6562C24.9047 27.6562 26.6062 27.6562 28.3594 27.6562C28.3594 21.5461 28.3594 15.4359 28.3594 9.14062C26.6578 9.14062 24.9563 9.14062 23.2031 9.14062ZM12.8906 22.2656C12.8906 24.0445 12.8906 25.8234 12.8906 27.6562C14.2828 27.6562 15.675 27.6562 17.1094 27.6562C17.1094 25.8773 17.1094 24.0984 17.1094 22.2656C15.7172 22.2656 14.325 22.2656 12.8906 22.2656Z" fill="currentColor"/>
<path d="M18.2812 6.00586C18.4843 6.00405 18.6873 6.00223 18.8965 6.00037C19.4531 6.09375 19.4531 6.09375 19.8743 6.37665C20.2511 6.93818 20.2346 7.31242 20.2148 7.9834C20.2112 8.18914 20.2076 8.39489 20.2039 8.60687C20.1562 9.14062 20.1562 9.14062 19.9219 9.60938C19.2946 9.81847 18.9249 9.87548 18.2812 9.87305C18.042 9.87395 18.042 9.87395 17.7979 9.87488C17.3438 9.84375 17.3438 9.84375 16.6406 9.60938C16.425 8.96239 16.3611 8.52337 16.3477 7.85156C16.3416 7.67029 16.3356 7.48901 16.3293 7.30225C16.4062 6.79688 16.4062 6.79688 16.6882 6.38489C17.2437 6.00088 17.6102 5.99987 18.2812 6.00586ZM17.5781 7.26562C17.5781 7.72969 17.5781 8.19375 17.5781 8.67188C18.0422 8.67188 18.5063 8.67188 18.9844 8.67188C18.9844 8.20781 18.9844 7.74375 18.9844 7.26562C18.5203 7.26562 18.0562 7.26562 17.5781 7.26562Z" fill="currentColor"/>
<path d="M11.7188 6.00586C11.9218 6.00405 12.1248 6.00223 12.334 6.00037C12.8906 6.09375 12.8906 6.09375 13.3118 6.38489C13.6709 6.90955 13.6734 7.22066 13.6523 7.85156C13.6487 8.03284 13.6451 8.21411 13.6414 8.40088C13.5938 8.90625 13.5938 8.90625 13.3594 9.60938C12.7321 9.81847 12.3624 9.87548 11.7188 9.87305C11.4795 9.87395 11.4795 9.87395 11.2354 9.87488C10.7812 9.84375 10.7812 9.84375 10.0781 9.60938C9.79057 9.03426 9.79646 8.62504 9.78516 7.9834C9.77911 7.77826 9.77307 7.57311 9.76685 7.36176C9.84375 6.79688 9.84375 6.79688 10.1257 6.37665C10.6815 6.00334 11.0531 5.99992 11.7188 6.00586ZM11.0156 7.26562C11.0156 7.72969 11.0156 8.19375 11.0156 8.67188C11.4797 8.67188 11.9438 8.67188 12.4219 8.67188C12.4219 8.20781 12.4219 7.74375 12.4219 7.26562C11.9578 7.26562 11.4937 7.26562 11.0156 7.26562Z" fill="currentColor"/>
<path d="M16.875 16.1719C17.5195 16.0785 17.5195 16.0785 18.2812 16.084C18.6583 16.0813 18.6583 16.0813 19.043 16.0785C19.2557 16.1093 19.4684 16.1401 19.6875 16.1719C20.1954 16.9338 20.22 17.1779 20.2148 18.0615C20.2161 18.2673 20.2173 18.473 20.2185 18.685C20.1562 19.2188 20.1562 19.2188 19.6875 19.6875C19.043 19.758 19.043 19.758 18.2812 19.7607C18.0299 19.7647 17.7785 19.7686 17.5195 19.7726C17.3068 19.7445 17.0941 19.7164 16.875 19.6875C16.3872 18.9558 16.3421 18.7658 16.3477 17.9297C16.3458 17.6578 16.3458 17.6578 16.344 17.3804C16.4062 16.875 16.4062 16.875 16.875 16.1719ZM17.5781 17.3438C17.5781 17.8078 17.5781 18.2719 17.5781 18.75C18.0422 18.75 18.5063 18.75 18.9844 18.75C18.9844 18.2859 18.9844 17.8219 18.9844 17.3438C18.5203 17.3438 18.0562 17.3438 17.5781 17.3438Z" fill="currentColor"/>
<path d="M10.3125 16.1719C10.957 16.0785 10.957 16.0785 11.7188 16.084C12.0958 16.0813 12.0958 16.0813 12.4805 16.0785C12.6932 16.1093 12.9059 16.1401 13.125 16.1719C13.6128 16.9036 13.6579 17.0936 13.6523 17.9297C13.6536 18.111 13.6548 18.2922 13.656 18.479C13.5938 18.9844 13.5938 18.9844 13.125 19.6875C12.4805 19.7726 12.4805 19.7726 11.7188 19.7607C11.3417 19.7594 11.3417 19.7594 10.957 19.758C10.3125 19.6875 10.3125 19.6875 9.84375 19.2188C9.78149 18.685 9.78149 18.685 9.78516 18.0615C9.78395 17.8564 9.78274 17.6512 9.78149 17.4399C9.84375 16.875 9.84375 16.875 10.3125 16.1719ZM11.0156 17.3438C11.0156 17.8078 11.0156 18.2719 11.0156 18.75C11.4797 18.75 11.9438 18.75 12.4219 18.75C12.4219 18.2859 12.4219 17.8219 12.4219 17.3438C11.9578 17.3438 11.4937 17.3438 11.0156 17.3438Z" fill="currentColor"/>
<path d="M16.875 11.25C17.5195 11.1648 17.5195 11.1648 18.2812 11.1767C18.6583 11.1781 18.6583 11.1781 19.043 11.1795C19.6875 11.25 19.6875 11.25 20.1562 11.7187C20.2185 12.2525 20.2185 12.2525 20.2148 12.876C20.2161 13.0811 20.2173 13.2862 20.2185 13.4976C20.1562 14.0625 20.1562 14.0625 19.6875 14.7656C19.043 14.859 19.043 14.859 18.2812 14.8535C17.9042 14.8562 17.9042 14.8562 17.5195 14.859C17.3068 14.8282 17.0941 14.7974 16.875 14.7656C16.3872 14.0339 16.3421 13.8439 16.3477 13.0078C16.3458 12.7359 16.3458 12.7359 16.344 12.4585C16.4062 11.9531 16.4062 11.9531 16.875 11.25ZM17.5781 12.1875C17.5781 12.7289 17.5781 13.2703 17.5781 13.8281C18.0422 13.8281 18.5063 13.8281 18.9844 13.8281C18.9844 13.2867 18.9844 12.7453 18.9844 12.1875C18.5203 12.1875 18.0562 12.1875 17.5781 12.1875Z" fill="currentColor"/>
<path d="M11.7188 11.1767C11.9701 11.1728 12.2215 11.1688 12.4805 11.1648C12.6932 11.1929 12.9059 11.221 13.125 11.2499C13.6128 11.9817 13.6579 12.1717 13.6523 13.0078C13.6536 13.189 13.6548 13.3703 13.656 13.5571C13.5938 14.0624 13.5938 14.0624 13.125 14.7656C12.4805 14.8589 12.4805 14.8589 11.7188 14.8535C11.3417 14.8562 11.3417 14.8562 10.957 14.8589C10.7443 14.8281 10.5316 14.7973 10.3125 14.7656C9.80456 14.0037 9.77995 13.7596 9.78516 12.8759C9.78395 12.6702 9.78274 12.4644 9.78149 12.2524C9.91961 11.0683 10.7199 11.1803 11.7188 11.1767ZM11.0156 12.1874C11.0156 12.7288 11.0156 13.2703 11.0156 13.8281C11.4797 13.8281 11.9438 13.8281 12.4219 13.8281C12.4219 13.2867 12.4219 12.7453 12.4219 12.1874C11.9578 12.1874 11.4937 12.1874 11.0156 12.1874Z" fill="currentColor"/>
<path d="M26.7189 11.7188C26.8736 11.7961 27.0282 11.8735 27.1876 11.9532C27.1876 12.8813 27.1876 13.8094 27.1876 14.7657C26.4547 15.1321 25.6455 15.0937 24.8439 15.0001C24.6118 14.8454 24.3798 14.6907 24.1407 14.5313C24.0474 13.9893 24.0474 13.9893 24.0529 13.3594C24.051 13.1516 24.0492 12.9437 24.0474 12.7295C24.0782 12.5507 24.109 12.3718 24.1407 12.1876C25.0908 11.5542 25.5899 11.665 26.7189 11.7188ZM25.3126 12.8907C25.3126 13.2001 25.3126 13.5094 25.3126 13.8282C25.622 13.8282 25.9314 13.8282 26.2501 13.8282C26.2501 13.5188 26.2501 13.2094 26.2501 12.8907C25.9407 12.8907 25.6314 12.8907 25.3126 12.8907Z" fill="currentColor"/>
<path d="M5.15625 11.7187C5.38828 11.8734 5.62031 12.0281 5.85938 12.1874C5.95276 12.7294 5.95276 12.7294 5.94727 13.3593C5.94908 13.5672 5.95089 13.775 5.95276 13.9892C5.92194 14.1681 5.89113 14.3469 5.85938 14.5312C4.90932 15.1646 4.41021 15.0537 3.28125 14.9999C3.12656 14.9226 2.97188 14.8453 2.8125 14.7656C2.8125 13.8374 2.8125 12.9093 2.8125 11.9531C3.54541 11.5866 4.35465 11.625 5.15625 11.7187ZM3.75 12.8906C3.75 13.1999 3.75 13.5093 3.75 13.8281C4.05938 13.8281 4.36875 13.8281 4.6875 13.8281C4.6875 13.5187 4.6875 13.2093 4.6875 12.8906C4.37812 12.8906 4.06875 12.8906 3.75 12.8906Z" fill="currentColor"/>
<path d="M25.1597 16.821C25.3696 16.8244 25.5796 16.8277 25.796 16.8311C26.1118 16.8334 26.1118 16.8334 26.4341 16.8357C26.9532 16.8751 26.9532 16.8751 27.1876 17.1094C27.2106 17.5386 27.218 17.9687 27.2169 18.3985C27.2175 18.6329 27.2181 18.8674 27.2187 19.1089C27.1876 19.6876 27.1876 19.6876 26.9532 19.9219C26.5189 19.9389 26.084 19.9416 25.6495 19.9366C25.4123 19.9345 25.1751 19.9324 24.9308 19.9302C24.7474 19.9275 24.564 19.9247 24.3751 19.9219C24.0993 19.3703 24.1017 19.0124 24.0967 18.3985C24.0934 18.2124 24.0901 18.0263 24.0867 17.8345C24.1686 17.0906 24.4276 16.8929 25.1597 16.821ZM25.3126 17.8126C25.3126 18.1993 25.3126 18.586 25.3126 18.9844C25.6219 18.9844 25.9313 18.9844 26.2501 18.9844C26.2501 18.5977 26.2501 18.211 26.2501 17.8126C25.9407 17.8126 25.6313 17.8126 25.3126 17.8126Z" fill="currentColor"/>
<path d="M25.1596 21.9773C25.3696 21.9806 25.5796 21.9839 25.7959 21.9874C26.1118 21.9896 26.1118 21.9896 26.434 21.9919C26.9531 22.0313 26.9531 22.0313 27.1875 22.2657C27.2106 22.6949 27.2179 23.125 27.2168 23.5547C27.2174 23.7892 27.218 24.0236 27.2186 24.2652C27.1875 24.8438 27.1875 24.8438 26.9531 25.0782C26.5682 25.1074 26.1819 25.1194 25.7959 25.1221C25.5859 25.1255 25.3759 25.1288 25.1596 25.1322C24.6094 25.0782 24.6094 25.0782 24.1406 24.6094C24.0784 24.1187 24.0784 24.1187 24.082 23.5547C24.0808 23.3686 24.0796 23.1825 24.0784 22.9908C24.1724 22.2496 24.4267 22.0492 25.1596 21.9773ZM25.3125 22.9688C25.3125 23.3555 25.3125 23.7422 25.3125 24.1407C25.6219 24.1407 25.9312 24.1407 26.25 24.1407C26.25 23.754 26.25 23.3672 26.25 22.9688C25.9406 22.9688 25.6313 22.9688 25.3125 22.9688Z" fill="currentColor"/>
<path d="M4.20398 21.9874C4.41396 21.984 4.62393 21.9807 4.84027 21.9773C5.3905 22.0313 5.3905 22.0313 5.85925 22.5001C5.92151 22.9908 5.92151 22.9908 5.91785 23.5547C5.91906 23.7409 5.92026 23.927 5.92151 24.1187C5.85925 24.6094 5.85925 24.6094 5.3905 25.0782C4.84027 25.1322 4.84027 25.1322 4.20398 25.1221C3.9934 25.1206 3.78282 25.1191 3.56586 25.1176C3.04675 25.0782 3.04675 25.0782 2.81238 24.8438C2.78929 24.4146 2.78197 23.9845 2.78308 23.5547C2.78248 23.3203 2.78187 23.0859 2.78125 22.8443C2.83614 21.824 3.29458 21.9939 4.20398 21.9874ZM3.74988 22.9688C3.74988 23.3555 3.74988 23.7422 3.74988 24.1407C4.05925 24.1407 4.36863 24.1407 4.68738 24.1407C4.68738 23.754 4.68738 23.3672 4.68738 22.9688C4.378 22.9688 4.06863 22.9688 3.74988 22.9688Z" fill="currentColor"/>
<path d="M4.20398 16.8311C4.41396 16.8278 4.62393 16.8245 4.84027 16.821C5.3905 16.8751 5.3905 16.8751 5.85925 17.3438C5.92151 17.8345 5.92151 17.8345 5.91785 18.3985C5.91906 18.5846 5.92026 18.7707 5.92151 18.9625C5.85925 19.4532 5.85925 19.4532 5.3905 19.9219C4.84027 19.976 4.84027 19.976 4.20398 19.9659C3.9934 19.9644 3.78282 19.9629 3.56586 19.9613C3.04675 19.9219 3.04675 19.9219 2.81238 19.6876C2.78929 19.2584 2.78197 18.8283 2.78308 18.3985C2.78248 18.1641 2.78187 17.9296 2.78125 17.688C2.83614 16.6677 3.29458 16.8376 4.20398 16.8311ZM3.74988 17.8126C3.74988 18.1993 3.74988 18.586 3.74988 18.9844C4.05925 18.9844 4.36863 18.9844 4.68738 18.9844C4.68738 18.5977 4.68738 18.211 4.68738 17.8126C4.378 17.8126 4.06863 17.8126 3.74988 17.8126Z" fill="currentColor"/>
</svg>
