<svg width="30" height="30" viewBox="0 0 30 30" fill="none" xmlns="http://www.w3.org/2000/svg">
<g clip-path="url(#clip0_2023_32)">
<path d="M19.2637 1.22957C19.5512 1.30705 19.8386 1.38453 20.1348 1.46435C20.7381 1.62752 21.341 1.79172 21.9435 1.95793C22.7167 2.17123 23.4908 2.38121 24.2653 2.59C25.0056 2.78973 25.7455 2.99105 26.4854 3.19246C26.7639 3.26815 27.0424 3.34384 27.3294 3.42183C27.5846 3.4922 27.8398 3.56256 28.1027 3.63506C28.3283 3.697 28.5539 3.75893 28.7863 3.82274C29.297 3.98439 29.297 3.98439 29.5313 4.21877C29.5536 4.8321 29.5608 5.43923 29.558 6.05263C29.558 6.24469 29.558 6.43674 29.5581 6.63462C29.5579 7.27252 29.5561 7.9104 29.5542 8.5483C29.5538 8.98936 29.5535 9.43042 29.5532 9.87149C29.5523 11.0347 29.55 12.198 29.5474 13.3612C29.545 14.5473 29.544 15.7334 29.5428 16.9194C29.5403 19.2484 29.5363 21.5773 29.5313 23.9063C27.2449 24.6958 24.9172 25.3258 22.5851 25.9642C22.0695 26.1059 21.5543 26.2489 21.0394 26.3931C20.2896 26.6032 19.5388 26.8092 18.7876 27.0145C18.4466 27.1111 18.4466 27.1111 18.0986 27.2098C15.4298 27.928 13.3793 27.6294 10.7365 26.8955C10.3053 26.7793 10.3053 26.7793 9.86542 26.6607C9.26208 26.4975 8.65917 26.3333 8.05668 26.1671C7.28344 25.9538 6.50936 25.7438 5.7349 25.535C4.99457 25.3353 4.25467 25.134 3.5148 24.9326C3.23627 24.8569 2.95774 24.7812 2.67077 24.7032C2.41558 24.6328 2.16039 24.5625 1.89747 24.49C1.67189 24.428 1.44632 24.3661 1.21391 24.3023C0.703218 24.1406 0.703218 24.1406 0.468843 23.9063C0.446555 23.2929 0.439415 22.6858 0.442235 22.0724C0.442201 21.8804 0.442167 21.6883 0.442132 21.4904C0.442296 20.8525 0.444122 20.2146 0.445955 19.5767C0.446392 19.1357 0.446725 18.6946 0.44696 18.2535C0.447856 17.0903 0.450161 15.927 0.45275 14.7638C0.455143 13.5777 0.456217 12.3917 0.457399 11.2056C0.459916 8.87666 0.463918 6.54772 0.468843 4.21877C2.75525 3.42923 5.08295 2.79925 7.41512 2.16084C7.93069 2.01914 8.4459 1.87616 8.96076 1.73191C9.71059 1.52188 10.4614 1.31581 11.2126 1.11055C11.4399 1.04611 11.6673 0.981672 11.9015 0.915278C14.5704 0.197085 16.6209 0.495637 19.2637 1.22957ZM11.8525 2.25588C11.6204 2.31831 11.3883 2.38073 11.1491 2.44505C10.4109 2.64402 9.67325 2.84542 8.93564 3.04689C8.43397 3.18255 7.93227 3.31805 7.43051 3.45339C6.2032 3.7848 4.97644 4.1182 3.75009 4.45314C3.75009 4.60783 3.75009 4.76252 3.75009 4.92189C5.20765 5.33249 6.6669 5.7366 8.12746 6.1364C8.62339 6.27295 9.11893 6.41095 9.61405 6.55045C10.3287 6.75152 11.0446 6.94724 11.761 7.14205C11.9796 7.20478 12.1982 7.26751 12.4234 7.33214C14.7463 7.9523 16.6958 7.54714 18.9717 6.91317C19.1816 6.85627 19.3916 6.79938 19.6079 6.74076C20.2697 6.56102 20.9308 6.37872 21.5919 6.19631C22.0441 6.073 22.4964 5.94986 22.9487 5.82689C24.0497 5.52718 25.1501 5.22517 26.2501 4.92189C26.2501 4.76721 26.2501 4.61252 26.2501 4.45314C24.7745 4.05012 23.2981 3.64987 21.8212 3.25151C21.3191 3.11574 20.8172 2.97933 20.3154 2.84227C19.5933 2.64514 18.8706 2.4503 18.1477 2.25588C17.9242 2.19436 17.7008 2.13284 17.4706 2.06945C15.3785 1.51129 13.9214 1.68626 11.8525 2.25588ZM1.40634 5.39064C1.40634 6.70549 1.40634 8.02033 1.40634 9.37502C5.75165 10.662 10.1398 11.7748 14.5313 12.8906C14.5313 11.5758 14.5313 10.261 14.5313 8.90627C10.186 7.61933 5.79788 6.50651 1.40634 5.39064ZM27.2 5.68813C26.8293 5.78554 26.8293 5.78554 26.451 5.88491C26.182 5.95595 25.913 6.02699 25.6358 6.10018C25.2244 6.20859 25.2244 6.20859 24.8046 6.31919C24.2232 6.47253 23.6417 6.62603 23.0603 6.77967C22.168 7.01534 21.2755 7.25015 20.3829 7.48491C19.8194 7.63363 19.2559 7.78241 18.6924 7.93123C18.2896 8.03708 18.2896 8.03708 17.8786 8.14506C17.6307 8.21074 17.3828 8.27641 17.1274 8.34408C16.9085 8.40185 16.6895 8.45962 16.464 8.51914C15.9354 8.65539 15.9354 8.65539 15.4688 8.90627C15.4688 10.2211 15.4688 11.536 15.4688 12.8906C16.6978 12.579 17.9267 12.2669 19.1553 11.9537C19.5713 11.8477 19.9874 11.7421 20.4036 11.6367C23.153 10.9402 25.8774 10.1913 28.5938 9.37502C28.5938 8.06018 28.5938 6.74533 28.5938 5.39064C28.1225 5.39064 27.6517 5.56923 27.2 5.68813ZM1.40634 10.5469C1.40634 11.0883 1.40634 11.6297 1.40634 12.1875C5.75152 13.4744 10.1397 14.5884 14.5313 15.7031C14.5313 15.1617 14.5313 14.6203 14.5313 14.0625C10.1862 12.7756 5.79802 11.6617 1.40634 10.5469ZM27.2 10.8444C26.8293 10.9418 26.8293 10.9418 26.451 11.0412C26.182 11.1122 25.913 11.1832 25.6358 11.2564C25.2244 11.3648 25.2244 11.3648 24.8046 11.4754C24.2232 11.6288 23.6417 11.7823 23.0603 11.9359C22.168 12.1716 21.2755 12.4064 20.3829 12.6412C19.8194 12.7899 19.2559 12.9387 18.6924 13.0875C18.2896 13.1933 18.2896 13.1933 17.8786 13.3013C17.6307 13.367 17.3828 13.4327 17.1274 13.5003C16.9085 13.5581 16.6895 13.6159 16.464 13.6754C15.9354 13.8116 15.9354 13.8116 15.4688 14.0625C15.4688 14.6039 15.4688 15.1453 15.4688 15.7031C16.6979 15.3918 17.9267 15.0794 19.1553 14.7662C19.5713 14.6602 19.9874 14.5546 20.4036 14.4492C23.1522 13.7529 25.8799 13.0091 28.5938 12.1875C28.5938 11.6461 28.5938 11.1047 28.5938 10.5469C28.1225 10.5469 27.6517 10.7255 27.2 10.8444ZM1.40634 13.3594C1.40634 13.5914 1.40634 13.8235 1.40634 14.0625C1.71572 14.1399 2.02509 14.2172 2.34384 14.2969C2.18916 14.6063 2.03447 14.9156 1.87509 15.2344C1.72041 15.2344 1.56572 15.2344 1.40634 15.2344C1.40634 17.7867 1.40634 20.3391 1.40634 22.9688C5.75579 24.2442 10.139 25.3683 14.5313 26.4844C14.5313 23.9321 14.5313 21.3797 14.5313 18.75C14.222 18.6727 13.9126 18.5953 13.5938 18.5156C13.5938 18.2063 13.5938 17.8969 13.5938 17.5781C13.9032 17.5781 14.2126 17.5781 14.5313 17.5781C14.5313 17.3461 14.5313 17.1141 14.5313 16.875C10.1862 15.5881 5.79802 14.4742 1.40634 13.3594ZM28.3595 13.3594C26.5988 13.8217 24.8383 14.2848 23.078 14.7484C22.4788 14.9062 21.8795 15.0637 21.2802 15.2211C20.4202 15.4469 19.5604 15.6734 18.7007 15.9C18.2967 16.0058 18.2967 16.0058 17.8846 16.1138C17.636 16.1795 17.3873 16.2452 17.1311 16.3128C16.9115 16.3706 16.6918 16.4284 16.4655 16.4879C15.9356 16.624 15.9356 16.624 15.4688 16.875C15.4688 17.1071 15.4688 17.3391 15.4688 17.5781C15.7782 17.5781 16.0876 17.5781 16.4063 17.5781C16.4063 17.8875 16.4063 18.1969 16.4063 18.5156C16.097 18.593 15.7876 18.6703 15.4688 18.75C15.4688 21.3024 15.4688 23.8547 15.4688 26.4844C16.6978 26.1728 17.9267 25.8606 19.1553 25.5474C19.5713 25.4415 19.9874 25.3358 20.4036 25.2304C23.153 24.5339 25.8774 23.785 28.5938 22.9688C28.5938 20.4164 28.5938 17.8641 28.5938 15.2344C28.2845 15.2344 27.9751 15.2344 27.6563 15.2344C27.6563 14.925 27.6563 14.6156 27.6563 14.2969C27.9657 14.2196 28.2751 14.1422 28.5938 14.0625C28.4778 13.7145 28.4778 13.7145 28.3595 13.3594Z" fill="currentColor"/>
<path d="M0.703125 24.6094C1.37216 24.7143 1.9971 24.8514 2.65137 25.0195C2.96398 25.0959 2.96398 25.0959 3.28291 25.1739C4.60404 25.503 5.91648 25.8603 7.22678 26.2298C7.80331 26.3924 8.38024 26.5535 8.95723 26.7144C9.72504 26.9286 10.4909 27.1484 11.2562 27.3713C11.6188 27.4732 11.9814 27.5749 12.3441 27.6764C12.506 27.7252 12.668 27.7739 12.8349 27.8242C15.1284 28.4523 17.279 27.7702 19.5026 27.1335C20.0461 26.9825 20.5896 26.8316 21.1331 26.6808C21.9821 26.4427 22.8308 26.2036 23.6791 25.963C24.5029 25.7302 25.3278 25.5014 26.153 25.2731C26.4073 25.1997 26.6617 25.1262 26.9238 25.0505C27.1602 24.9856 27.3966 24.9206 27.6401 24.8536C27.9512 24.7657 27.9512 24.7657 28.2685 24.676C28.927 24.5976 29.2132 24.7286 29.7656 25.0781C29.6076 25.5201 29.6076 25.5201 29.2969 26.0156C28.758 26.2618 28.758 26.2618 28.076 26.4448C27.8208 26.5151 27.5657 26.5854 27.3028 26.6579C27.0254 26.7299 26.7481 26.802 26.4624 26.8762C26.1773 26.9529 25.8922 27.0296 25.5985 27.1087C24.9936 27.2704 24.3886 27.4306 23.7827 27.5884C23.0118 27.7892 22.2427 27.996 21.4739 28.2047C20.7352 28.4045 19.9953 28.5997 19.2554 28.7952C18.9818 28.8691 18.7083 28.9431 18.4265 29.0193C15.6059 29.747 13.5438 29.552 10.7446 28.7952C10.4577 28.7194 10.1708 28.6435 9.87525 28.5654C9.27287 28.4053 8.67096 28.244 8.06946 28.0807C7.29884 27.8717 6.52674 27.6689 5.75405 27.4678C5.01428 27.2741 4.27603 27.0749 3.5376 26.8762C3.26028 26.8042 2.98295 26.7321 2.69723 26.6579C2.44206 26.5875 2.18689 26.5172 1.92398 26.4448C1.69893 26.3844 1.47387 26.324 1.242 26.2618C0.703125 26.0156 0.703125 26.0156 0.392447 25.5201C0.340283 25.3742 0.288119 25.2284 0.234375 25.0781C0.389063 24.9234 0.54375 24.7687 0.703125 24.6094Z" fill="currentColor"/>
<path d="M19.9219 16.6406C19.9219 16.95 19.9219 17.2593 19.9219 17.5781C18.9561 18.0463 18.1753 18.0886 17.1094 18.0468C17.1094 17.7375 17.1094 17.4281 17.1094 17.1093C18.0751 16.6411 18.8559 16.5988 19.9219 16.6406Z" fill="currentColor"/>
<path d="M10.0781 16.6406C11.1441 16.5988 11.9249 16.6411 12.8906 17.1093C12.8906 17.4187 12.8906 17.7281 12.8906 18.0468C11.8247 18.0886 11.0439 18.0463 10.0781 17.5781C10.0781 17.2687 10.0781 16.9593 10.0781 16.6406Z" fill="currentColor"/>
<path d="M23.4375 15.7031C23.4375 16.0125 23.4375 16.3218 23.4375 16.6406C22.4717 17.1088 21.691 17.1511 20.625 17.1093C20.625 16.8 20.625 16.4906 20.625 16.1718C21.5908 15.7036 22.3715 15.6613 23.4375 15.7031Z" fill="currentColor"/>
<path d="M6.5625 15.7031C7.62845 15.6613 8.40924 15.7036 9.375 16.1718C9.375 16.4812 9.375 16.7906 9.375 17.1093C8.30905 17.1511 7.52826 17.1088 6.5625 16.6406C6.5625 16.3312 6.5625 16.0218 6.5625 15.7031Z" fill="currentColor"/>
<path d="M26.9531 14.7656C26.9531 15.075 26.9531 15.3843 26.9531 15.7031C25.9874 16.1713 25.2066 16.2136 24.1406 16.1718C24.1406 15.8625 24.1406 15.5531 24.1406 15.2343C25.1064 14.7661 25.8872 14.7238 26.9531 14.7656Z" fill="currentColor"/>
<path d="M3.04688 14.7656C4.11283 14.7238 4.89362 14.7661 5.85938 15.2343C5.85938 15.5437 5.85938 15.8531 5.85938 16.1718C4.79342 16.2136 4.01263 16.1713 3.04688 15.7031C3.04688 15.3937 3.04688 15.0843 3.04688 14.7656Z" fill="currentColor"/>
</g>
<defs>
<clipPath id="clip0_2023_32">
<rect width="30" height="30" fill="white"/>
</clipPath>
</defs>
</svg>
