<svg width="30" height="30" viewBox="0 0 30 30" fill="none" xmlns="http://www.w3.org/2000/svg">
<g clip-path="url(#clip0_2023_27)">
<path d="M9.14075 0.703084C11.5652 0.686788 13.9896 0.674296 16.4141 0.666653C17.5399 0.662985 18.6657 0.658009 19.7915 0.65004C20.878 0.642397 21.9646 0.638195 23.0512 0.636373C23.4656 0.635074 23.88 0.632539 24.2944 0.628742C24.8752 0.623634 25.4558 0.622935 26.0365 0.623261C26.2076 0.620733 26.3787 0.618205 26.555 0.615601C27.5842 0.621842 28.254 0.754697 29.0626 1.40621C29.2736 2.03914 29.3276 2.40808 29.3315 3.05798C29.3332 3.25052 29.3348 3.44306 29.3366 3.64143C29.3372 3.85183 29.3378 4.06224 29.3385 4.27902C29.34 4.50127 29.3416 4.72351 29.3431 4.9525C29.3478 5.68874 29.3505 6.42496 29.3528 7.16121C29.3538 7.41251 29.3548 7.66381 29.3557 7.92272C29.3606 9.25225 29.364 10.5818 29.3662 11.9113C29.3688 13.2856 29.3768 14.6598 29.3861 16.034C29.3923 17.09 29.3942 18.146 29.3951 19.202C29.3962 19.7086 29.3989 20.2153 29.4033 20.722C29.409 21.4306 29.4088 22.1391 29.4071 22.8477C29.4101 23.0572 29.4132 23.2667 29.4162 23.4825C29.4084 24.4202 29.3617 24.961 28.9006 25.7951C28.242 26.3487 27.9435 26.393 27.0913 26.383C26.8379 26.3829 26.5846 26.3828 26.3236 26.3827C26.0516 26.3767 25.7796 26.3706 25.4994 26.3644C25.2198 26.3627 24.9402 26.3611 24.6521 26.3594C23.7589 26.3528 22.8659 26.3381 21.9728 26.3232C21.3673 26.3173 20.7618 26.312 20.1564 26.3072C18.6719 26.2943 17.1876 26.274 15.7032 26.25C15.7032 27.2554 15.7032 28.2609 15.7032 29.2968C13.7821 29.3021 11.861 29.3064 9.9398 29.309C9.04781 29.3102 8.15584 29.3119 7.26386 29.3145C6.40373 29.3171 5.54361 29.3185 4.68348 29.3191C4.35463 29.3195 4.02578 29.3204 3.69694 29.3216C3.23785 29.3233 2.77876 29.3234 2.31967 29.3234C2.05788 29.324 1.79609 29.3245 1.52637 29.325C0.937622 29.2968 0.937622 29.2968 0.703247 29.0625C0.655119 28.5757 0.629608 28.0866 0.615356 27.5976C0.603876 27.3305 0.592395 27.0635 0.580566 26.7883C0.703247 26.0156 0.703247 26.0156 1.18298 25.3399C2.05704 24.7133 2.59557 24.7035 3.66223 24.6972C4.79537 24.7453 4.79537 24.7453 5.78419 24.3139C6.35703 23.5598 6.23836 22.6681 6.24036 21.7529C6.24124 21.5512 6.24213 21.3496 6.24305 21.1418C6.21067 19.9585 6.11939 19.1875 5.28821 18.2812C5.13866 18.1555 4.98911 18.0298 4.83502 17.9003C4.32791 17.4723 4.24079 17.0571 4.16302 16.4108C4.11707 15.0442 4.33263 14.004 5.15637 12.8906C6.41869 11.8859 7.31495 11.6887 8.90637 11.7187C8.90585 11.5876 8.90533 11.4565 8.90479 11.3215C8.89962 9.96043 8.89608 8.59939 8.8935 7.23835C8.89232 6.73 8.89072 6.22165 8.88869 5.71331C8.88586 4.98378 8.88452 4.25427 8.88348 3.52474C8.88227 3.29646 8.88106 3.06818 8.87982 2.83298C8.8798 2.62186 8.87978 2.41074 8.87976 2.19322C8.87924 2.0069 8.87872 1.82057 8.87819 1.6286C8.90637 1.17183 8.90637 1.17183 9.14075 0.703084ZM9.84387 1.64058C9.80323 3.08346 9.7735 4.526 9.75375 5.96931C9.74551 6.45994 9.73433 6.95053 9.7201 7.44102C9.70014 8.14741 9.69088 8.85327 9.68365 9.5599C9.67519 9.77821 9.66672 9.99653 9.65799 10.2215C9.64625 11.3947 9.64625 11.3947 10.2041 12.3857C10.6349 12.7584 10.6349 12.7584 11.0869 13.0572C11.7671 13.5741 11.9497 14.2023 12.1876 15C12.3629 16.377 12.0207 17.3896 11.2501 18.5156C11.0456 18.6839 10.841 18.8521 10.6303 19.0255C9.95237 19.8384 9.96163 20.2233 10.0242 21.2443C10.0421 21.4315 10.0599 21.6186 10.0782 21.8115C10.0888 21.9996 10.0994 22.1876 10.1103 22.3814C10.1677 23.1495 10.261 23.7836 10.5607 24.4958C11.2737 25.0409 12.0424 24.9934 12.9054 25.0048C14.7249 25.0576 14.7249 25.0576 15.2345 25.3125C15.6365 25.3361 16.0394 25.3449 16.4421 25.3465C16.6939 25.348 16.9458 25.3495 17.2052 25.351C17.4782 25.3513 17.7511 25.3516 18.0323 25.3518C18.3115 25.3526 18.5906 25.3534 18.8782 25.3542C19.4693 25.3554 20.0604 25.3559 20.6514 25.3559C21.5588 25.3564 22.4662 25.3607 23.3735 25.3651C23.9467 25.3658 24.5198 25.3663 25.0929 25.3665C25.3658 25.3682 25.6388 25.3698 25.92 25.3716C26.1719 25.3709 26.4237 25.3701 26.6832 25.3694C26.9055 25.3697 27.1279 25.3701 27.3571 25.3704C27.9373 25.3638 27.9373 25.3638 28.3595 24.8437C28.4074 24.1342 28.4259 23.4461 28.4239 22.7362C28.4257 22.4086 28.4257 22.4086 28.4275 22.0744C28.4308 21.3499 28.4305 20.6253 28.43 19.9008C28.4309 19.3987 28.4319 18.8966 28.433 18.3945C28.4348 17.341 28.4347 16.2875 28.4335 15.2339C28.4321 13.882 28.4361 12.53 28.4415 11.1781C28.445 10.1408 28.4452 9.10354 28.4445 8.06626C28.4446 7.56772 28.4458 7.06917 28.4482 6.57063C28.451 5.87421 28.4495 5.17794 28.4468 4.48152C28.4485 4.27439 28.4503 4.06727 28.4522 3.85386C28.4505 3.66426 28.4489 3.47465 28.4472 3.2793C28.4473 3.0323 28.4473 3.0323 28.4473 2.78031C28.331 2.20182 28.1224 1.99382 27.6564 1.64058C27.0651 1.57486 26.5323 1.55165 25.9414 1.56076C25.7676 1.56066 25.5937 1.56056 25.4146 1.56045C24.8401 1.56094 24.2657 1.56641 23.6912 1.57192C23.2929 1.57323 22.8945 1.57423 22.4962 1.57493C21.4477 1.57762 20.3993 1.58453 19.3509 1.5923C18.281 1.5995 17.2112 1.60271 16.1413 1.60625C14.0421 1.61379 11.943 1.62579 9.84387 1.64058ZM6.09387 13.5937C5.43968 14.3684 5.17785 14.825 5.05383 15.8349C5.16532 16.7109 5.32766 17.1156 5.8595 17.8125C6.15996 18.0391 6.15996 18.0391 6.46649 18.2702C7.30695 19.3327 7.16867 20.2782 7.11926 21.5918C7.11428 21.9439 7.11428 21.9439 7.10919 22.3031C7.07482 24.0102 7.07482 24.0102 6.797 24.8437C7.72512 24.8437 8.65325 24.8437 9.6095 24.8437C9.57083 24.4818 9.53215 24.1198 9.49231 23.7469C9.15575 19.9066 9.15575 19.9066 9.7688 18.6392C10.2833 18.0615 10.2833 18.0615 10.8061 17.5607C11.2936 17.0652 11.4239 16.7922 11.5284 16.1132C11.466 14.8639 11.1217 14.1984 10.2833 13.2861C8.77012 12.3979 7.42583 12.3857 6.09387 13.5937ZM1.64075 26.25C1.64075 26.9461 1.64075 27.6421 1.64075 28.3593C5.972 28.3593 10.3032 28.3593 14.7657 28.3593C14.7657 27.5859 14.7657 26.8125 14.7657 26.0156C14.3757 25.6255 13.908 25.7494 13.3719 25.7472C13.1247 25.7457 12.8776 25.7442 12.6229 25.7426C12.3539 25.7424 12.0849 25.7421 11.8077 25.7418C11.3963 25.7407 11.3963 25.7407 10.9765 25.7395C10.3951 25.7383 9.81368 25.7377 9.23224 25.7378C8.33975 25.7373 7.44732 25.733 6.55484 25.7286C5.99133 25.7279 5.42783 25.7274 4.86432 25.7272C4.59576 25.7255 4.3272 25.7238 4.0505 25.7221C3.8026 25.7228 3.5547 25.7235 3.29928 25.7243C3.08036 25.7239 2.86143 25.7236 2.63587 25.7233C2.06208 25.7309 2.06208 25.7309 1.64075 26.25Z" fill="currentColor"/>
<path d="M21.8993 4.46773C23.5191 5.40646 24.4559 6.57568 24.9682 8.37795C25.3369 10.151 25.0417 11.7924 24.0975 13.3474C23.0489 14.7169 21.6271 15.5675 19.9145 15.7992C17.9857 15.8552 16.3164 15.5326 14.8553 14.1952C13.6047 12.7787 13.0761 11.2547 13.1249 9.37496C13.2634 7.82876 13.9902 6.55051 14.9999 5.39058C16.9944 3.8033 19.5357 3.37214 21.8993 4.46773ZM17.8271 5.59566C17.083 6.72296 16.6405 8.01663 16.6405 9.37496C17.3366 9.37496 18.0327 9.37496 18.7499 9.37496C18.7499 7.98277 18.7499 6.59058 18.7499 5.15621C18.232 5.10188 18.232 5.10188 17.8271 5.59566ZM19.6874 5.15621C19.6874 6.5484 19.6874 7.94058 19.6874 9.37496C20.3062 9.37496 20.9249 9.37496 21.5624 9.37496C21.5219 7.78471 21.1745 6.63411 20.1562 5.39058C20.0015 5.31324 19.8468 5.2359 19.6874 5.15621ZM15.8495 6.1523C14.7991 7.25275 14.4459 7.82372 14.2968 9.37496C14.7608 9.37496 15.2249 9.37496 15.703 9.37496C15.7511 9.18281 15.7991 8.99066 15.8486 8.79268C16.1126 7.73678 16.3766 6.68087 16.6405 5.62496C16.3067 5.59809 16.3067 5.59809 15.8495 6.1523ZM21.7968 5.85933C22.0288 7.01949 22.2608 8.17965 22.4999 9.37496C23.0413 9.37496 23.5827 9.37496 24.1405 9.37496C23.7493 7.94359 23.3235 6.91726 22.2655 5.85933C22.1108 5.85933 21.9562 5.85933 21.7968 5.85933ZM14.2968 10.3125C14.3801 11.6732 14.7365 12.6063 15.703 13.5937C16.0124 13.7484 16.3218 13.9031 16.6405 14.0625C16.3312 12.825 16.0218 11.5875 15.703 10.3125C15.239 10.3125 14.7749 10.3125 14.2968 10.3125ZM16.6405 10.3125C16.8482 12.0268 17.1193 13.2241 18.2812 14.5312C18.4358 14.5312 18.5905 14.5312 18.7499 14.5312C18.7499 13.139 18.7499 11.7468 18.7499 10.3125C18.0538 10.3125 17.3577 10.3125 16.6405 10.3125ZM19.6874 10.3125C19.6874 11.7046 19.6874 13.0968 19.6874 14.5312C20.7878 13.5001 20.7878 13.5001 21.2841 12.29C21.3661 12.0285 21.3661 12.0285 21.4498 11.7617C21.596 11.1847 21.596 11.1847 21.5624 10.3125C20.9437 10.3125 20.3249 10.3125 19.6874 10.3125ZM22.4999 10.3125C22.2679 11.4726 22.0358 12.6328 21.7968 13.8281C22.9563 13.2483 23.3318 12.6136 23.9062 11.4843C24.1058 10.8263 24.1058 10.8263 24.1405 10.3125C23.5991 10.3125 23.0577 10.3125 22.4999 10.3125Z" fill="currentColor"/>
<path d="M13.1827 18.4874C13.4154 18.4879 13.648 18.4885 13.8877 18.489C14.1504 18.489 14.4132 18.489 14.6839 18.4891C15.1127 18.4909 15.1127 18.4909 15.5502 18.4927C15.9867 18.4932 15.9867 18.4932 16.432 18.4937C17.2069 18.4948 17.9817 18.4969 18.7566 18.4995C19.5468 18.5019 20.337 18.503 21.1272 18.5042C22.6785 18.5068 24.2299 18.5107 25.7812 18.5156C25.7039 18.825 25.6266 19.1344 25.5469 19.4531C21.293 19.4531 17.0391 19.4531 12.6562 19.4531C12.5789 19.2211 12.5016 18.989 12.4219 18.75C12.6562 18.5156 12.6562 18.5156 13.1827 18.4874Z" fill="currentColor"/>
<path d="M12.6562 21.7969C16.9875 21.7969 21.3187 21.7969 25.7812 21.7969C25.7812 22.0289 25.7812 22.2609 25.7812 22.5C21.45 22.5 17.1188 22.5 12.6562 22.5C12.6562 22.268 12.6562 22.0359 12.6562 21.7969Z" fill="currentColor"/>
</g>
<defs>
<clipPath id="clip0_2023_27">
<rect width="30" height="30" fill="white"/>
</clipPath>
</defs>
</svg>
